<svg width="70" height="70" viewBox="0 0 70 70" fill="none" xmlns="http://www.w3.org/2000/svg">
<g id="Group 5">
<path id="Vector" d="M35.0053 69.3141C53.8834 69.3141 69.1871 54.0139 69.1871 35.1401C69.1871 16.2663 53.8834 0.965912 35.0053 0.965912C16.1272 0.965912 0.823486 16.2663 0.823486 35.1401C0.823486 54.0139 16.1272 69.3141 35.0053 69.3141Z" fill="#FF5C00"/>
<path id="Vector_2" d="M34.9926 18.0472C29.6944 18.0472 25.3789 22.3617 25.3789 27.6587C25.3778 27.7732 25.3951 27.8871 25.4302 27.9962C25.5199 31.3687 26.9812 34.3184 28.6989 37.0523C30.4763 39.878 32.5336 42.5265 33.8539 45.2306C33.9407 45.4087 34.0754 45.5592 34.2429 45.6652C34.4104 45.7712 34.604 45.8285 34.8023 45.8308C35.0005 45.833 35.1954 45.78 35.3652 45.6778C35.535 45.5755 35.673 45.4281 35.7638 45.2519C37.1524 42.55 39.3144 39.8973 41.1816 37.0736C43.0467 34.25 44.6404 31.2 44.6404 27.6758C44.6424 27.5401 44.6184 27.4052 44.5699 27.2785C44.3627 22.1631 40.1604 18.0472 34.9926 18.0472ZM34.9926 20.1831C39.1371 20.1831 42.4698 23.5172 42.4698 27.6587C42.4687 27.7354 42.4759 27.812 42.4912 27.8872C42.4271 30.681 41.1368 33.2696 39.3999 35.8968C37.9301 38.1202 36.268 40.4163 34.8345 42.8021C33.4736 40.427 31.9055 38.1352 30.5105 35.9181C28.8164 33.2205 27.5495 30.5678 27.5495 27.6736C27.5492 27.6113 27.5435 27.5491 27.5324 27.4878C27.5705 25.5358 28.3735 23.6767 29.7687 22.3106C31.1639 20.9445 33.0397 20.1805 34.9926 20.1831ZM34.9926 24.4591C33.2365 24.4591 31.788 25.9051 31.788 27.663C31.788 29.4208 33.2365 30.8668 34.9926 30.8668C36.7508 30.8668 38.1971 29.4208 38.1971 27.663C38.1971 25.9051 36.7508 24.4591 34.9926 24.4591ZM34.9926 26.595C35.595 26.595 36.0608 27.0606 36.0608 27.663C36.0608 28.2653 35.595 28.7309 34.9926 28.7309C34.8517 28.7329 34.7119 28.7067 34.5814 28.6537C34.4509 28.6008 34.3324 28.5222 34.2328 28.4226C34.1332 28.323 34.0546 28.2045 34.0016 28.074C33.9486 27.9435 33.9224 27.8038 33.9244 27.663C33.9244 27.0606 34.3901 26.595 34.9926 26.595ZM43.7303 37.7593C43.4814 37.7599 43.2405 37.8474 43.0493 38.0066C42.858 38.1659 42.7284 38.3869 42.6828 38.6316C42.6372 38.8762 42.6785 39.1291 42.7995 39.3465C42.9206 39.564 43.1138 39.7323 43.3458 39.8225C45.4757 40.6854 46.8451 41.8153 47.4348 42.8555C48.0265 43.8956 48.0116 44.7948 47.2403 45.9012C45.6915 48.114 40.7543 50.0747 35.1186 50.0982C29.4808 50.1196 24.4753 48.2122 22.8388 45.9931C22.0206 44.8824 21.98 43.9789 22.529 42.943C23.0802 41.9093 24.3984 40.7687 26.4941 39.8887C26.6295 39.8388 26.7534 39.762 26.8583 39.663C26.9631 39.5639 27.0469 39.4446 27.1044 39.3123C27.1619 39.18 27.192 39.0374 27.1928 38.8932C27.1937 38.7489 27.1653 38.606 27.1094 38.473C27.0536 38.34 26.9713 38.2197 26.8676 38.1194C26.7639 38.019 26.641 37.9408 26.5063 37.8892C26.3715 37.8377 26.2277 37.814 26.0835 37.8196C25.9393 37.8251 25.7978 37.8598 25.6674 37.9216C23.2746 38.9254 21.5292 40.2753 20.6426 41.9434C19.756 43.6094 19.9099 45.6214 21.119 47.2618C23.5374 50.5382 29.0471 52.2597 35.1314 52.2341C41.2137 52.2085 46.6721 50.4464 48.9922 47.1294C50.1522 45.4698 50.2313 43.4492 49.2913 41.8003C48.3555 40.1514 46.5717 38.8229 44.1469 37.8426C44.0152 37.7865 43.8735 37.7574 43.7303 37.7571V37.7593Z" fill="white"/>
</g>
</svg>
