<svg width="69" height="69" viewBox="0 0 69 69" fill="none" xmlns="http://www.w3.org/2000/svg">
<path d="M34.1969 68.788C53.0833 68.788 68.3938 53.4775 68.3938 34.5911C68.3938 15.7046 53.0833 0.394043 34.1969 0.394043C15.3105 0.394043 0 15.7046 0 34.5911C0 53.4775 15.3105 68.788 34.1969 68.788Z" fill="black"/>
<path d="M34.1842 17.4868C28.8837 17.4868 24.5663 21.8042 24.5663 27.1047C24.5652 27.2193 24.5825 27.3333 24.6176 27.4424C24.7074 30.8172 26.1693 33.7688 27.8877 36.5046C29.666 39.3322 31.7242 41.9825 33.045 44.6883C33.1319 44.8666 33.2666 45.0172 33.4342 45.1233C33.6017 45.2293 33.7955 45.2867 33.9938 45.2889C34.1921 45.2911 34.3871 45.2381 34.557 45.1358C34.7269 45.0335 34.865 44.886 34.9558 44.7097C36.345 42.006 38.508 39.3515 40.376 36.5259C42.2419 33.7004 43.8363 30.6483 43.8363 27.1218C43.8383 26.986 43.8143 26.8511 43.7658 26.7243C43.5584 21.6054 39.3544 17.4868 34.1842 17.4868ZM34.1842 19.6241C38.3306 19.6241 41.6648 22.9605 41.6648 27.1047C41.6637 27.1815 41.6708 27.2581 41.6862 27.3334C41.622 30.129 40.3311 32.7194 38.5935 35.3483C37.123 37.5732 35.4602 39.8708 34.0261 42.2582C32.6646 39.8815 31.0958 37.5882 29.7002 35.3697C28.0053 32.6702 26.7378 30.0157 26.7378 27.1197C26.7376 27.0573 26.7319 26.9951 26.7207 26.9337C26.7588 24.9804 27.5622 23.12 28.958 21.753C30.3538 20.386 32.2305 19.6215 34.1842 19.6241ZM34.1842 23.903C32.4274 23.903 30.9783 25.35 30.9783 27.109C30.9783 28.868 32.4274 30.3149 34.1842 30.3149C35.9432 30.3149 37.3902 28.868 37.3902 27.109C37.3902 25.35 35.9432 23.903 34.1842 23.903ZM34.1842 26.0403C34.7869 26.0403 35.2529 26.5062 35.2529 27.109C35.2529 27.7117 34.7869 28.1776 34.1842 28.1776C34.0433 28.1796 33.9035 28.1534 33.7729 28.1004C33.6423 28.0474 33.5237 27.9687 33.4241 27.8691C33.3244 27.7695 33.2458 27.6509 33.1928 27.5203C33.1398 27.3897 33.1136 27.2499 33.1156 27.109C33.1156 26.5062 33.5815 26.0403 34.1842 26.0403ZM42.9258 37.212C42.6768 37.2126 42.4358 37.3002 42.2445 37.4595C42.0531 37.6189 41.9235 37.8401 41.8778 38.0849C41.8322 38.3297 41.8735 38.5828 41.9946 38.8003C42.1157 39.0179 42.309 39.1864 42.5411 39.2766C44.672 40.1401 46.042 41.2708 46.6319 42.3116C47.2239 43.3525 47.209 44.2523 46.4374 45.3594C44.8878 47.5737 39.9485 49.5357 34.3103 49.5592C28.67 49.5806 23.6623 47.672 22.0251 45.4513C21.2065 44.3399 21.1659 43.4358 21.7152 42.3993C22.2666 41.3648 23.5853 40.2235 25.682 39.3429C25.8175 39.293 25.9414 39.2161 26.0463 39.117C26.1512 39.0179 26.235 38.8985 26.2925 38.7661C26.35 38.6337 26.3802 38.491 26.381 38.3467C26.3819 38.2023 26.3535 38.0593 26.2976 37.9262C26.2417 37.7931 26.1594 37.6728 26.0557 37.5724C25.952 37.472 25.829 37.3936 25.6941 37.3421C25.5593 37.2905 25.4154 37.2668 25.2712 37.2724C25.127 37.2779 24.9853 37.3126 24.8549 37.3744C22.4611 38.379 20.7149 39.7298 19.8279 41.399C18.941 43.0661 19.0948 45.0794 20.3046 46.7209C22.724 49.9995 28.2361 51.7222 34.3231 51.6965C40.4081 51.6709 45.8689 49.9076 48.19 46.5884C49.3505 44.9277 49.4296 42.9058 48.4892 41.2558C47.5531 39.6058 45.7684 38.2764 43.3426 37.2954C43.2108 37.2392 43.0691 37.2101 42.9258 37.2099V37.212Z" fill="white"/>
</svg>
